<svg aria-hidden="true" style="position: absolute; width: 0; height: 0; overflow: hidden;" version="1.1" xmlns="http://www.w3.org/2000/svg" xmlns:xlink="http://www.w3.org/1999/xlink">
<defs>
<symbol id="icon-facebook" viewBox="0 0 32 32">
<path d="M21.329 5.313h2.921v-5.088c-0.504-0.069-2.237-0.225-4.256-0.225-4.212 0-7.097 2.649-7.097 7.519v4.481h-4.648v5.688h4.648v14.312h5.699v-14.311h4.46l0.708-5.688h-5.169v-3.919c0.001-1.644 0.444-2.769 2.735-2.769z"></path>
</symbol>
<symbol id="icon-instagram" viewBox="0 0 32 32">
<path d="M27.406 6.72c-0.053-1.214-0.25-2.049-0.531-2.773-0.29-0.768-0.737-1.456-1.322-2.027-0.572-0.58-1.264-1.032-2.023-1.317-0.728-0.281-1.558-0.478-2.773-0.531-1.224-0.058-1.612-0.071-4.715-0.071s-3.492 0.013-4.711 0.067c-1.214 0.054-2.049 0.25-2.773 0.531-0.768 0.29-1.456 0.737-2.027 1.322-0.58 0.572-1.031 1.264-1.317 2.023-0.281 0.728-0.478 1.558-0.531 2.773-0.058 1.224-0.072 1.612-0.072 4.715s0.013 3.492 0.067 4.711c0.054 1.214 0.25 2.049 0.531 2.773 0.29 0.768 0.741 1.456 1.322 2.027 0.572 0.58 1.264 1.032 2.023 1.317 0.728 0.281 1.558 0.478 2.773 0.531 1.219 0.054 1.607 0.067 4.711 0.067s3.492-0.013 4.711-0.067c1.215-0.053 2.049-0.25 2.773-0.531 1.536-0.594 2.751-1.808 3.345-3.344 0.281-0.728 0.478-1.558 0.531-2.773 0.053-1.219 0.067-1.608 0.067-4.711s-0.005-3.492-0.058-4.711zM25.348 16.052c-0.049 1.116-0.237 1.719-0.393 2.121-0.384 0.996-1.174 1.786-2.17 2.17-0.402 0.156-1.009 0.344-2.121 0.393-1.206 0.054-1.567 0.067-4.617 0.067s-3.416-0.013-4.617-0.067c-1.116-0.049-1.719-0.236-2.121-0.393-0.496-0.183-0.947-0.473-1.313-0.853-0.38-0.371-0.67-0.817-0.853-1.313-0.156-0.402-0.344-1.009-0.393-2.121-0.054-1.206-0.067-1.567-0.067-4.617s0.013-3.416 0.067-4.617c0.049-1.116 0.237-1.719 0.393-2.121 0.183-0.496 0.473-0.947 0.857-1.313 0.37-0.38 0.817-0.67 1.313-0.853 0.402-0.156 1.009-0.344 2.121-0.393 1.206-0.054 1.567-0.067 4.617-0.067 3.054 0 3.416 0.013 4.617 0.067 1.116 0.049 1.719 0.237 2.121 0.393 0.495 0.183 0.947 0.473 1.313 0.853 0.379 0.371 0.67 0.817 0.853 1.313 0.156 0.402 0.344 1.009 0.393 2.121 0.054 1.206 0.067 1.567 0.067 4.617s-0.013 3.407-0.067 4.613z"></path>
<path d="M16.042 5.559c-3.242 0-5.872 2.63-5.872 5.872s2.63 5.872 5.872 5.872c3.242 0 5.872-2.63 5.872-5.872s-2.63-5.872-5.872-5.872zM16.042 15.24c-2.103 0-3.809-1.706-3.809-3.809s1.706-3.809 3.809-3.809c2.103 0 3.809 1.706 3.809 3.809s-1.706 3.809-3.809 3.809v0z"></path>
<path d="M23.517 5.327c0 0.757-0.614 1.371-1.371 1.371s-1.371-0.614-1.371-1.371c0-0.757 0.614-1.371 1.371-1.371s1.371 0.614 1.371 1.371v0z"></path>
</symbol>
<symbol id="icon-linkedin" viewBox="0 0 32 32">
<path d="M31.992 32v-0.001h0.008v-11.736c0-5.741-1.236-10.164-7.948-10.164-3.227 0-5.392 1.771-6.276 3.449h-0.093v-2.913h-6.364v21.364h6.627v-10.579c0-2.785 0.528-5.479 3.977-5.479 3.399 0 3.449 3.179 3.449 5.657v10.401h6.62z"></path>
<path d="M0.528 10.636h6.635v21.364h-6.635v-21.364z"></path>
<path d="M3.843 0c-2.121 0-3.843 1.721-3.843 3.843s1.721 3.879 3.843 3.879c2.121 0 3.843-1.757 3.843-3.879-0.001-2.121-1.723-3.843-3.843-3.843v0z"></path>
</symbol>
<symbol id="icon-twitter" viewBox="0 0 32 32">
<path d="M32 6.078c-1.19 0.522-2.458 0.868-3.78 1.036 1.36-0.812 2.398-2.088 2.886-3.626-1.268 0.756-2.668 1.29-4.16 1.588-1.204-1.282-2.92-2.076-4.792-2.076-3.632 0-6.556 2.948-6.556 6.562 0 0.52 0.044 1.020 0.152 1.496-5.454-0.266-10.28-2.88-13.522-6.862-0.566 0.982-0.898 2.106-0.898 3.316 0 2.272 1.17 4.286 2.914 5.452-1.054-0.020-2.088-0.326-2.964-0.808 0 0.020 0 0.046 0 0.072 0 3.188 2.274 5.836 5.256 6.446-0.534 0.146-1.116 0.216-1.72 0.216-0.42 0-0.844-0.024-1.242-0.112 0.85 2.598 3.262 4.508 6.13 4.57-2.232 1.746-5.066 2.798-8.134 2.798-0.538 0-1.054-0.024-1.57-0.090 2.906 1.874 6.35 2.944 10.064 2.944 12.072 0 18.672-10 18.672-18.668 0-0.29-0.010-0.57-0.024-0.848 1.302-0.924 2.396-2.078 3.288-3.406z"></path>
</symbol>
</defs>
</svg>
